<?xml version="1.0" encoding="UTF-8"?>
<svg xmlns="http://www.w3.org/2000/svg" xmlns:xlink="http://www.w3.org/1999/xlink" viewBox="0 0 370.71 234.39">
  <defs>
    <style>
      .cls-1, .cls-2, .cls-3, .cls-4, .cls-5, .cls-6, .cls-7, .cls-8, .cls-9, .cls-10, .cls-11, .cls-12, .cls-13, .cls-14 {
        fill: none;
      }

      .cls-15 {
        fill: url(#linear-gradient);
      }

      .cls-16 {
        fill: none;
      }

      .cls-17 {
        fill: #f4eff9;
      }

      .cls-18 {
        fill: #f19b7d;
      }

      .cls-19 {
        fill: #b8bfd1;
      }

      .cls-20 {
        fill: #a6abfd;
      }

      .cls-21 {
        fill: none;
      }

      .cls-22 {
        fill: #e0e9ff;
      }

      .cls-23 {
        fill: #2c000d;
      }

      .cls-24 {
        fill: #342d6e;
      }

      .cls-25 {
        fill: #394599;
      }

      .cls-2 {
        stroke: url(#_Новый_образец_узора_1-8);
      }

      .cls-2, .cls-3, .cls-4, .cls-5, .cls-6, .cls-7, .cls-8, .cls-26, .cls-27, .cls-9, .cls-10, .cls-11, .cls-12, .cls-13, .cls-14 {
        stroke-miterlimit: 10;
      }

      .cls-2, .cls-3, .cls-4, .cls-5, .cls-6, .cls-7, .cls-8, .cls-26, .cls-27, .cls-9, .cls-10, .cls-11, .cls-12, .cls-14 {
        stroke-width: .25px;
      }

      .cls-2, .cls-3, .cls-4, .cls-5, .cls-6, .cls-7, .cls-8, .cls-9, .cls-10, .cls-11, .cls-12 {
        stroke-linecap: round;
      }

      .cls-3 {
        stroke: url(#_Новый_образец_узора_1-7);
      }

      .cls-4 {
        stroke: url(#_Новый_образец_узора_1-3);
      }

      .cls-5 {
        stroke: url(#_Новый_образец_узора_1-6);
      }

      .cls-6 {
        stroke: url(#_Новый_образец_узора_1-4);
      }

      .cls-7 {
        stroke: url(#_Новый_образец_узора_1-5);
      }

      .cls-8, .cls-13 {
        stroke: #2c000d;
      }

      .cls-26 {
        stroke: url(#_Новый_образец_узора_1-9);
      }

      .cls-26, .cls-27 {
        fill: url(#_Новый_образец_узора_1);
      }

      .cls-27 {
        filter: url(#drop-shadow-1);
        stroke: url(#_Новый_образец_узора_1-2);
      }

      .cls-9 {
        stroke: url(#_Новый_образец_узора_1-10);
      }

      .cls-10 {
        stroke: url(#_Новый_образец_узора_1-12);
      }

      .cls-11 {
        stroke: url(#_Новый_образец_узора_1-13);
      }

      .cls-12 {
        stroke: url(#_Новый_образец_узора_1-11);
      }

      .cls-28 {
        fill: #daddfc;
      }

      .cls-28, .cls-29, .cls-30, .cls-31, .cls-32 {
        opacity: .34;
      }

      .cls-13 {
        stroke-width: 2px;
      }

      .cls-33 {
        fill: url(#linear-gradient-8);
      }

      .cls-34 {
        fill: url(#linear-gradient-3);
      }

      .cls-35 {
        fill: url(#linear-gradient-4);
      }

      .cls-36 {
        fill: url(#linear-gradient-2);
      }

      .cls-37 {
        fill: url(#linear-gradient-6);
      }

      .cls-38 {
        fill: url(#linear-gradient-7);
      }

      .cls-39 {
        fill: url(#linear-gradient-5);
      }

      .cls-29 {
        fill: url(#linear-gradient-10);
      }

      .cls-30 {
        fill: url(#linear-gradient-12);
      }

      .cls-31 {
        fill: url(#linear-gradient-11);
      }

      .cls-32 {
        fill: url(#linear-gradient-9);
      }

      .cls-14 {
        stroke: #f8fafb;
      }
    </style>
    <pattern id="_Новый_образец_узора_1" data-name="Новый образец узора 1" x="0" y="0" width="314.98" height="314.98" patternTransform="translate(-325.9 -308.57)" patternUnits="userSpaceOnUse" viewBox="0 0 314.98 314.98">
      <g>
        <rect class="cls-1" width="314.98" height="314.98"/>
        <rect class="cls-16" width="314.98" height="314.98"/>
      </g>
    </pattern>
    <pattern id="_Новый_образец_узора_1-2" data-name="Новый образец узора 1" patternTransform="translate(-320.43 -303.13)" xlink:href="#_Новый_образец_узора_1"/>
    <filter id="drop-shadow-1" filterUnits="userSpaceOnUse">
      <feOffset dx="5" dy="5"/>
      <feGaussianBlur result="blur" stdDeviation="5"/>
      <feFlood flood-color="#503972" flood-opacity=".4"/>
      <feComposite in2="blur" operator="in"/>
      <feComposite in="SourceGraphic"/>
    </filter>
    <linearGradient id="linear-gradient" x1="281.5" y1="198.69" x2="336.45" y2="72.15" gradientUnits="userSpaceOnUse">
      <stop offset="0" stop-color="#919dff"/>
      <stop offset="1" stop-color="#ffe5f5"/>
    </linearGradient>
    <linearGradient id="linear-gradient-2" x1="309.79" y1="204.19" x2="341.32" y2="131.6" xlink:href="#linear-gradient"/>
    <linearGradient id="linear-gradient-3" x1="38.02" y1="192.96" x2="73.48" y2="111.32" xlink:href="#linear-gradient"/>
    <linearGradient id="linear-gradient-4" x1="69.13" y1="203.96" x2="94.51" y2="145.52" xlink:href="#linear-gradient"/>
    <linearGradient id="linear-gradient-5" x1="78.88" y1="202.34" x2="119.98" y2="107.7" xlink:href="#linear-gradient"/>
    <pattern id="_Новый_образец_узора_1-3" data-name="Новый образец узора 1" patternTransform="translate(-320.43 -303.13)" xlink:href="#_Новый_образец_узора_1"/>
    <pattern id="_Новый_образец_узора_1-4" data-name="Новый образец узора 1" patternTransform="translate(-320.43 -303.13)" xlink:href="#_Новый_образец_узора_1"/>
    <pattern id="_Новый_образец_узора_1-5" data-name="Новый образец узора 1" patternTransform="translate(-320.43 -303.13)" xlink:href="#_Новый_образец_узора_1"/>
    <linearGradient id="linear-gradient-6" x1="166.81" y1="223.98" x2="229.2" y2="80.34" gradientTransform="translate(-50.49 68.01) rotate(-20.1)" gradientUnits="userSpaceOnUse">
      <stop offset="0" stop-color="#8592ff"/>
      <stop offset="1" stop-color="#e5e5ff"/>
    </linearGradient>
    <pattern id="_Новый_образец_узора_1-6" data-name="Новый образец узора 1" patternTransform="translate(-320.43 -303.13)" xlink:href="#_Новый_образец_узора_1"/>
    <linearGradient id="linear-gradient-7" x1="296.77" y1="201.95" x2="319.6" y2="149.4" xlink:href="#linear-gradient"/>
    <pattern id="_Новый_образец_узора_1-7" data-name="Новый образец узора 1" patternTransform="translate(-320.43 -303.13)" xlink:href="#_Новый_образец_узора_1"/>
    <linearGradient id="linear-gradient-8" x1="189.14" y1="189.77" x2="211.96" y2="137.22" gradientTransform="translate(114.29 -55.26) rotate(29.1)" xlink:href="#linear-gradient"/>
    <pattern id="_Новый_образец_узора_1-8" data-name="Новый образец узора 1" patternTransform="translate(-320.43 -303.13)" xlink:href="#_Новый_образец_узора_1"/>
    <pattern id="_Новый_образец_узора_1-9" data-name="Новый образец узора 1" patternTransform="translate(-320.43 -303.13)" xlink:href="#_Новый_образец_узора_1"/>
    <linearGradient id="linear-gradient-9" x1="157.75" y1="248.12" x2="270.75" y2="-12.06" xlink:href="#linear-gradient"/>
    <linearGradient id="linear-gradient-10" x1="271.92" y1="74.96" x2="325.2" y2="74.96" xlink:href="#linear-gradient"/>
    <pattern id="_Новый_образец_узора_1-10" data-name="Новый образец узора 1" patternTransform="translate(-320.43 -303.13)" xlink:href="#_Новый_образец_узора_1"/>
    <pattern id="_Новый_образец_узора_1-11" data-name="Новый образец узора 1" patternTransform="translate(-320.43 -303.13)" xlink:href="#_Новый_образец_узора_1"/>
    <pattern id="_Новый_образец_узора_1-12" data-name="Новый образец узора 1" patternTransform="translate(-320.43 -303.13)" xlink:href="#_Новый_образец_узора_1"/>
    <pattern id="_Новый_образец_узора_1-13" data-name="Новый образец узора 1" patternTransform="translate(-320.43 -303.13)" xlink:href="#_Новый_образец_узора_1"/>
    <linearGradient id="linear-gradient-11" x1="79.79" y1="24.61" x2="120.92" y2="24.61" xlink:href="#linear-gradient"/>
    <linearGradient id="linear-gradient-12" x1="64.28" y1="51.35" x2="87.85" y2="51.35" xlink:href="#linear-gradient"/>
  </defs>
  <g id="BACKGROUND">
    <rect class="cls-21" x="-295.43" y="-153.13" width="750" height="500"/>
  </g>
  <g id="OBJECTS">
    <g>
      <rect class="cls-27" x="-241.73" y="-110.13" width="631.55" height="404.28"/>
      <g>
        <path class="cls-15" d="M294.63,209.88s26.53-49.03,14.31-103.28c0,0-33.96,28.77-26.02,103.28h11.71Z"/>
        <path class="cls-36" d="M308.94,209.88s-6.37-28.5,13.7-59.78c0,0,12.12,26.24-3.34,59.78h-10.36Z"/>
        <path class="cls-34" d="M61.28,209.88s-46.51-59.88-30.09-81.56c16.41-21.68,34.88,81.56,34.88,81.56h-4.79Z"/>
        <path class="cls-35" d="M78.03,209.88s14.7-42.38,2.74-48.88c-11.97-6.5-9.23,48.88-9.23,48.88h6.5Z"/>
        <path class="cls-39" d="M89.92,209.88s17.15-38.48,9.26-76.51c0,0-25.94,22.16-21.15,76.51h11.88Z"/>
        <line class="cls-4" x1="37.51" y1="143.17" x2="66.36" y2="216.79"/>
        <line class="cls-6" x1="94.21" y1="151.04" x2="80.41" y2="216.08"/>
        <line class="cls-7" x1="302.66" y1="131.09" x2="284.32" y2="227.97"/>
        <path class="cls-37" d="M199.36,228.34s8.46-69.36-21.66-116.11c0,0-22.4,52.89,10.67,120.13l10.99-4.02Z"/>
        <line class="cls-5" x1="181.77" y1="142.73" x2="195.9" y2="248.87"/>
        <path class="cls-38" d="M314.41,209.88s-.24-53.52-17.46-49.41c-17.22,4.11,7.99,49.41,7.99,49.41h9.47Z"/>
        <path class="cls-3" d="M299.83,175.11c-.24,.72,15.69,52.85,15.69,52.85"/>
        <path class="cls-33" d="M198.82,218.05s25.82-46.88,8.77-51.66c-17.05-4.79-17.05,47.06-17.05,47.06l8.28,4.61Z"/>
        <path class="cls-2" d="M203,180.58c-.56,.52-12,53.81-12,53.81"/>
        <rect class="cls-26" x="176.67" y="209.88" width="43.28" height="38.99"/>
      </g>
      <g>
        <path class="cls-32" d="M19.66,209.88H354.26s3.17-68.92-41.82-81.36c-44.99-12.43-66.87-14.18-103.22-61.04-39.64-51.11-113.33-32.31-131.53,19.59-12.46,35.53,.42,65.08-27.82,63.02-51.28-3.73-44.78,52.81-30.21,59.78Z"/>
        <g>
          <path class="cls-29" d="M272.04,73.87s.05,.89,.35,2.31c.91,4.32,4.12,13.53,15.25,17.15,14.79,4.81,18.66-10.22,30.9-8.01,12.24,2.21,7.81-21.9-14.97-28-20.25-5.42-33,2.75-31.53,16.55Z"/>
          <path class="cls-9" d="M283.37,66.89s7.75-2.62,22.17,0"/>
          <path class="cls-12" d="M283.83,71.4s17.85-1.38,31.28,2.02"/>
          <path class="cls-10" d="M283.83,76.64s21.62-.37,31.28,.83"/>
          <path class="cls-11" d="M283.83,81.43s10.67,.18,15.64,.74"/>
        </g>
        <path class="cls-28" d="M272.79,53.8c0,1.01-1.11,1.83-2.48,1.83s-2.48-.82-2.48-1.83,1.11-1.83,2.48-1.83,2.48,.82,2.48,1.83Z"/>
        <path class="cls-17" d="M132.72,25.85c0,1.15-1.32,2.07-2.95,2.07s-2.95-.93-2.95-2.07,1.32-2.07,2.95-2.07,2.95,.93,2.95,2.07Z"/>
        <g>
          <path class="cls-31" d="M120.92,23.78c0,8.62-4.92,17.33-16.6,17.33-8.65,0-17.83-2.38-21.62-8.9-9.46-16.26,5.96-24.8,20.31-24.03,11.94,.64,17.91,6.99,17.91,15.61Z"/>
          <path class="cls-14" d="M90.13,20.52c.67-.54,12.73-1.95,20.66-1.04"/>
          <path class="cls-14" d="M90.16,25.13s15.04-.02,20.66,0"/>
          <path class="cls-14" d="M90.13,30.15s9.74,.62,15.52,.38"/>
        </g>
        <ellipse class="cls-30" cx="76.06" cy="51.35" rx="11.79" ry="9.75"/>
      </g>
      <path class="cls-25" d="M360.1,214.67H5.34c-1.42,0-2.57-1.16-2.57-2.57h0c0-1.42,1.16-2.57,2.57-2.57H360.1c1.42,0,2.57,1.16,2.57,2.57h0c0,1.42-1.16,2.57-2.57,2.57Z"/>
      <g>
        <path class="cls-23" d="M157.12,46.55c.27-3.62,1.91-7.17,1.62-9.12-.62-4.15-1.89-3.83-1.89-3.83,0,0,.72-4.49-7.27-1.97-7.99,2.52-10.09,6.61-8.71,13.57,1.37,6.96,15.7,8.81,16.26,1.35Z"/>
        <polygon class="cls-20" points="152.4 55.5 156.76 59.81 156.46 104.82 155.59 105.94 127.21 97.58 133.35 65.22 152.4 55.5"/>
        <polygon class="cls-24" points="139.12 206.17 147.92 142.95 150.81 97.58 128.72 94.03 129.37 145.35 130.77 206.17 139.12 206.17"/>
        <polygon class="cls-24" points="161.61 206.28 160.8 150.06 156.46 104.82 137.98 98.23 143.83 142.98 153.26 206.28 161.61 206.28"/>
        <path class="cls-18" d="M156.55,35.17s.26,4.03,1.94,8.1c1.5,3.64-.48,8.31-2.66,8.84-2.99,.73-7.75-.43-9.5-4.17,0,0-1.79,.16-2.42-2.51-.4-1.7,1.06-2.65,2.4-1.47,0,0-.19-5.05,2.32-5.16,6.12-.26,7.38-2.92,7.92-3.63Z"/>
        <polygon class="cls-18" points="146.32 47.94 145.86 56.72 152.73 55.67 152.28 49.98 146.32 47.94"/>
        <path class="cls-23" d="M152.68,44.23c.07,.33-.07,.64-.3,.69-.24,.05-.48-.18-.55-.52-.07-.33,.07-.64,.3-.69,.24-.05,.48,.18,.55,.52Z"/>
        <path class="cls-23" d="M157.11,42.6c.1,.32,0,.64-.23,.72-.23,.07-.5-.13-.6-.46-.1-.32,0-.65,.23-.72,.23-.07,.5,.13,.6,.46Z"/>
        <path class="cls-23" d="M146.3,43.96s.02-2.75,2.34-3.49c2.32-.74,7.36-2.48,7.9-5.3,.54-2.82-8.08-1.35-10.59,2.27-2.5,3.62,.34,6.52,.34,6.52Z"/>
        <path class="cls-8" d="M148.81,49.62s1.05,1.93,3.61,2.52"/>
        <path class="cls-8" d="M152.87,48.88s.35,1.09,2.04,.64"/>
        <path class="cls-8" d="M146.1,46.36s-.58-.51,0-.93c0,0-.82-1.45-1.38-.76"/>
        <path class="cls-18" d="M145.64,55.49s2.98,6.2,5.45,4.31c.91-.7,1.52-4.15,1.52-4.15l-6.98-.16Z"/>
        <path class="cls-20" d="M130.76,82.56l-4.57,19.34c-.21,1.55,.99,2.92,2.55,2.92h27.72s0,1.59,0,0l2.45-28.33-22.96,2.93c-1.09,.2-5.18,3.14-5.18,3.14Z"/>
        <path class="cls-20" d="M197.67,90.65l-19.56-7.78-15.39-20.24c-2.37-3.12-5.74-5.33-9.54-6.27h-.01c-14.26,5.56-5.15,14.76-5.15,14.76l16.34,19.8c3.47,4.2,8.67,6.59,14.12,6.47l22.12-.49-2.92-6.23Z"/>
        <path class="cls-22" d="M150.08,56.63l2.61-2.87,1.67,3.67s-2.29,4.23-2.11,4.05c.18-.18-1.83-3.33-1.83-3.33l-3.15,3.77-3.44-6.44,2.26-3.16,3.99,4.3Z"/>
        <path class="cls-20" d="M143.83,55.49l-3.18,1.02c-4.9,1.57-9,4.98-11.44,9.51l-10.89,20.23c-1.27,2.88-1.71,6.07-1.28,9.19l3.62,26.21,9.45-.53,1.05-25.29,16.12-33.89-3.44-6.44Z"/>
        <rect class="cls-23" x="108.59" y="129.21" width="35.14" height="23.55" rx="1.39" ry="1.39"/>
        <path class="cls-23" d="M153.34,206.17l-.12,1.41c-.1,1.24,.87,2.3,2.12,2.3h11.62c.68,0,1.14-.71,.84-1.33v-.02c-.26-.54-.74-.94-1.32-1.09l-4.8-1.27h-8.35Z"/>
        <path class="cls-23" d="M130.77,206.17l-.12,1.41c-.1,1.24,.87,2.3,2.12,2.3h11.62c.68,0,1.14-.71,.84-1.33v-.02c-.26-.54-.74-.94-1.32-1.09l-4.8-1.27h-8.35Z"/>
        <path class="cls-13" d="M118.52,131.59c-.09-.32,.47-2.79,.93-4.69,.32-1.32,1.5-2.24,2.85-2.24h6.94c1.36,0,2.55,.94,2.86,2.26l1.18,5.04"/>
        <path class="cls-18" d="M120.65,121.64s.69,3.99,1.31,4.24c.62,.25,7.17,0,7.17,0l.98-4.78-9.45,.53Z"/>
        <rect class="cls-19" x="123.81" y="141.55" width="4.91" height="3.25"/>
        <path class="cls-8" d="M147.27,122.31l-.74,29.59c.02,.58-.01,1.15-.09,1.72l-7.32,52.55"/>
        <polyline class="cls-8" points="130.1 121.1 131.12 91.01 142.53 73.42"/>
      </g>
      <g>
        <g>
          <path class="cls-23" d="M233.27,48.32c-.27-3.62,1.43-6.66,1.72-8.61,.62-4.15-.32-2.04-.32-2.04,0,0,1.29-3.95,9.21-1.24,5.73,1.97,8.03,4.66,4.38,10.77-3.64,6.09-14.44,8.58-14.99,1.12Z"/>
          <polygon class="cls-23" points="271.07 206.28 240.75 147.13 239.57 99.35 261.66 95.81 261.02 147.13 278.89 202.89 271.07 206.28"/>
          <polygon class="cls-23" points="221.86 206.17 227.63 141.95 232.11 99.35 252.4 100 246.55 149.2 230.21 206.17 221.86 206.17"/>
          <path class="cls-18" d="M233.84,36.95s-.26,4.03-1.94,8.1c-1.5,3.64,.48,8.31,2.66,8.84,2.99,.73,7.75-.43,9.5-4.17,0,0,1.79,.16,2.42-2.51,.4-1.7-1.06-2.65-2.4-1.47,0,0,.19-5.05-2.32-5.16-6.12-.26-7.38-2.92-7.92-3.63Z"/>
          <polygon class="cls-18" points="244.06 49.72 244.53 58.49 237.66 57.45 238.1 51.76 244.06 49.72"/>
          <path class="cls-23" d="M237.71,46.01c-.07,.33,.07,.64,.3,.69,.24,.05,.48-.18,.55-.52,.07-.33-.07-.64-.3-.69-.24-.05-.48,.18-.55,.52Z"/>
          <path class="cls-23" d="M233.27,44.38c-.1,.32,0,.65,.23,.72,.23,.07,.5-.13,.6-.46,.1-.32,0-.64-.23-.72-.23-.07-.5,.13-.6,.46Z"/>
          <path class="cls-23" d="M244.08,45.74s-.02-2.75-2.34-3.49c-2.32-.74-7.36-2.48-7.9-5.3-.54-2.82,8.08-1.35,10.59,2.27,2.5,3.62-.34,6.52-.34,6.52Z"/>
          <path class="cls-8" d="M241.58,51.4s-1.05,1.93-3.61,2.52"/>
          <path class="cls-8" d="M237.51,50.65s-.35,1.09-2.04,.64"/>
          <path class="cls-8" d="M244.29,48.14s.58-.51,0-.93c0,0,.82-1.45,1.38-.76"/>
          <path class="cls-18" d="M244.75,57.26s-2.98,6.2-5.45,4.31c-.91-.7-1.52-4.15-1.52-4.15l6.98-.16Z"/>
          <path class="cls-24" d="M259.63,84.33l4.57,19.34c.21,1.55-.99,2.92-2.55,2.92h-30.52c-1.59,0-2.89-1.29-2.89-2.89l3.24-25.45,22.96,2.93c1.09,.2,5.18,3.14,5.18,3.14Z"/>
          <path class="cls-8" d="M271.07,206.28l-28.48-55.57c-1.2-2.35-1.84-4.95-1.85-7.59l-.09-24.64"/>
          <path class="cls-23" d="M239.95,43.48s-9.92-2.19-9.35-9.75c0,0,1.49,1.38,6.18,.5,4.69-.88,13.76,.83,11.95,5.45-1.82,4.62-8.78,3.81-8.78,3.81Z"/>
          <polygon class="cls-18" points="196.3 90.11 201.06 88.37 204.74 90.77 201.87 97.39 197.37 96.96 196.3 90.11"/>
          <path class="cls-23" d="M230.21,206.17l.12,1.41c.1,1.24-.87,2.3-2.12,2.3h-11.62c-.68,0-1.14-.71-.84-1.33v-.02c.26-.54,.74-.94,1.32-1.09l4.8-1.27h8.35Z"/>
          <path class="cls-24" d="M237.99,57.28l-.88,.87c-2.26,2.23-3.7,5.14-4.1,8.29l-4.22,32.92,6.69,5.41,27.7-5.41-6.14-32.36-19.05-9.72Z"/>
          <path class="cls-22" d="M239.14,57.73l-1.44-2.19-1.67,3.67s1.13,3.45,.95,3.27c-.18-.18,2.34-2.67,2.34-2.67l3.32,3.47,3.93-6.01-2.26-3.16-5.16,3.62Z"/>
          <polygon class="cls-20" points="237.13 60.92 238.14 63.69 233.23 82.31 241.09 74.26 239.77 63.6 241.58 60.56 239.57 58.69 237.13 60.92"/>
          <polygon class="cls-18" points="197.37 96.96 204.74 97.66 205.64 90.81 199.83 90.51 197.37 96.96"/>
          <path class="cls-24" d="M205.64,90.81l23.14-6.35,17.78-27.2,2.68,1.03c2.85,1.09,5.26,3.15,6.68,5.85,2.36,4.51,1.28,7.83,1.28,7.83l-13.58,17.87c-4.36,5.73-11.24,8.97-18.43,8.67l-20.44-.85,.89-6.84Z"/>
          <path class="cls-8" d="M204.74,97.66l17.44,.85c10.63,.52,20.61-5.1,25.69-14.46l3.14-5.79"/>
        </g>
        <path class="cls-23" d="M266.22,209.88h5.66l7.29-3.3c.51-.23,.75-.81,.57-1.34l-.84-2.35-7.82,3.39-2.99,1.07c-1.08,.38-1.82,1.39-1.86,2.53h0Z"/>
      </g>
    </g>
  </g>
</svg>